<?xml version="1.0" encoding="UTF-8"?>
<svg width="500px" height="138px" viewBox="0 0 500 138" version="1.1" xmlns="http://www.w3.org/2000/svg" xmlns:xlink="http://www.w3.org/1999/xlink">
    <title>pokemol__brand</title>
    <g id="页面-1" stroke="none" stroke-width="1" fill="none" fill-rule="evenodd">
        <g id="pokemol__brand" fill-rule="nonzero">
            <path d="M149.026946,97.9840319 C147.255489,97.9840319 146.477046,97.2055888 146.477046,95.4341317 L146.477046,49.5259481 C146.477046,47.754491 147.255489,46.9760479 149.026946,46.9760479 L170.698603,46.9760479 C183.587824,46.9760479 187.41018,52.5748503 187.41018,60.7884232 L187.41018,69.8602794 C187.41018,78.0788423 183.587824,83.6726547 170.698603,83.6726547 L162.5499,83.6726547 L162.5499,95.4291417 C162.5499,97.2005988 161.771457,97.9790419 160,97.9790419 L149.026946,97.9840319 Z M162.41018,70.9281437 L168.782435,70.9281437 C171.546906,70.9281437 172.110778,69.3013972 172.110778,67.4600798 L172.110778,63.7075848 C172.110778,61.8662675 171.546906,60.2145709 168.782435,60.2145709 L162.41018,60.2145709 L162.41018,70.9281437 Z" id="形状" fill="#000000"></path>
            <path d="M216.017964,99.0469062 C198.313373,99.0469062 193.997006,93.238523 193.997006,84.5758483 L193.997006,60.4491018 C193.997006,51.8063872 198.313373,45.9281437 216.017964,45.9281437 C233.722555,45.9281437 237.974052,51.8063872 237.974052,60.4491018 L237.974052,84.5958084 C237.974052,93.238523 233.722555,99.0469062 216.017964,99.0469062 Z M216.017964,85.3792415 C221.187625,85.3792415 221.971058,83.9620758 221.971058,82.0459082 L221.971058,62.999002 C221.971058,61.1576846 221.187625,59.740519 216.017964,59.740519 C210.923154,59.740519 210.06986,61.1576846 210.06986,62.999002 L210.06986,82.0459082 C210.07984,83.9620758 210.923154,85.3792415 216.017964,85.3792415 L216.017964,85.3792415 Z" id="形状" fill="#000000"></path>
            <path d="M249.500998,97.9840319 C247.729541,97.9840319 246.951098,97.2055888 246.951098,95.4341317 L246.951098,49.5259481 C246.951098,47.754491 247.729541,46.9760479 249.500998,46.9760479 L260.479042,46.9760479 C262.250499,46.9760479 263.028942,47.754491 263.028942,49.5259481 L263.028942,65.8133733 L265.863273,65.8133733 L273.153693,49.3163673 C273.862275,47.6147705 274.855289,46.9760479 276.696607,46.9760479 L287.60479,46.9760479 C289.231537,46.9760479 289.800399,47.8293413 289.161677,49.3163673 L281.936128,65.8283433 C287.250499,66.1127745 290.648703,69.8203593 290.648703,75.4640719 L290.648703,95.4241517 C290.648703,97.1956088 289.870259,97.9740519 288.098802,97.9740519 L277.205589,97.9740519 C275.439122,97.9740519 274.660679,97.1956088 274.660679,95.4241517 L274.660679,81.6217565 C274.660679,80.0648703 273.877246,79.2165669 272.39022,79.2165669 L263.043912,79.2165669 L263.043912,95.4341317 C263.043912,97.2055888 262.265469,97.9840319 260.494012,97.9840319 L249.500998,97.9840319 Z" id="路径" fill="#000000"></path>
            <path d="M302.345309,97.9840319 C300.578842,97.9840319 299.800399,97.2055888 299.800399,95.4341317 L299.800399,49.5259481 C299.800399,47.754491 300.578842,46.9760479 302.345309,46.9760479 L335.209581,46.9760479 C336.976048,46.9760479 337.759481,47.754491 337.759481,49.5259481 L337.759481,57.8143713 C337.759481,59.5808383 336.976048,60.3642715 335.209581,60.3642715 L315.663673,60.3642715 L315.663673,65.8133733 L329.471058,65.8133733 C331.242515,65.8133733 332.020958,66.5968064 332.020958,68.3632735 L332.020958,75.9431138 C332.020958,77.7145709 331.242515,78.493014 329.471058,78.493014 L315.663673,78.493014 L315.663673,84.5808383 L335.209581,84.5808383 C336.976048,84.5808383 337.759481,85.3642715 337.759481,87.1307385 L337.759481,95.4191617 C337.759481,97.1906188 336.976048,97.9690619 335.209581,97.9690619 L302.345309,97.9840319 Z M307.729541,44.6556886 C306.102794,44.8702595 305.324351,43.9471058 305.324351,42.3203593 L305.324351,35.5189621 C305.324351,33.747505 306.102794,33.1836327 307.869261,32.9690619 L332.58982,29.9401198 C334.216567,29.7255489 334.99501,30.6487026 334.99501,32.2754491 L334.99501,39.0768463 C334.99501,40.8483034 334.216567,41.4121756 332.44511,41.6267465 L307.729541,44.6556886 Z" id="形状" fill="#000000"></path>
            <path d="M348.662675,97.9840319 C346.891218,97.9840319 346.112774,97.2055888 346.112774,95.4341317 L346.112774,49.5259481 C346.112774,47.754491 346.891218,46.9760479 348.662675,46.9760479 L360.06487,46.9760479 C361.561876,46.9760479 362.47006,47.5449102 363.323353,49.1017964 L369.695609,60.6437126 C370.194611,61.497006 370.404192,61.8512974 370.973054,61.8512974 L371.606786,61.8512974 C372.175649,61.8512974 372.38523,61.497006 372.884232,60.6437126 L379.186627,49.1017964 C380.03493,47.5449102 380.958084,46.9760479 382.44511,46.9760479 L393.922156,46.9760479 C395.693613,46.9760479 396.472056,47.754491 396.472056,49.5259481 L396.472056,95.4341317 C396.472056,97.2055888 395.693613,97.9840319 393.922156,97.9840319 L383.008982,97.9840319 C381.167665,97.9840319 380.459082,97.2055888 380.459082,95.4341317 L380.459082,70.4840319 L376.282435,78.2035928 C375.434132,79.8303393 374.371257,80.4690619 372.52994,80.4690619 L369.695609,80.4690619 C367.854291,80.4690619 366.791417,79.8303393 365.943114,78.2035928 L361.776447,70.503992 L361.776447,95.4540918 C361.776447,97.2255489 360.998004,98.003992 359.226547,98.003992 L348.662675,97.9840319 Z" id="路径" fill="#000000"></path>
            <path d="M427.48503,99.0469062 C409.780439,99.0469062 405.459082,93.238523 405.459082,84.5758483 L405.459082,60.4491018 C405.459082,51.8063872 409.780439,45.9281437 427.48503,45.9281437 C445.189621,45.9281437 449.441118,51.8063872 449.441118,60.4491018 L449.441118,84.5958084 C449.441118,93.238523 445.189621,99.0469062 427.48503,99.0469062 Z M427.48503,85.3792415 C432.654691,85.3792415 433.433134,83.9620758 433.433134,82.0459082 L433.433134,62.999002 C433.433134,61.1576846 432.654691,59.740519 427.48503,59.740519 C422.315369,59.740519 421.536926,61.1576846 421.536926,62.999002 L421.536926,82.0459082 C421.536926,83.9620758 422.38523,85.3792415 427.48503,85.3792415 L427.48503,85.3792415 Z" id="形状" fill="#000000"></path>
            <path d="M460.983034,97.9840319 C459.211577,97.9840319 458.433134,97.2055888 458.433134,95.4341317 L458.433134,49.5259481 C458.433134,47.754491 459.211577,46.9760479 460.983034,46.9760479 L471.961078,46.9760479 C473.727545,46.9760479 474.510978,47.754491 474.510978,49.5259481 L474.510978,84.5808383 L484.211577,84.5808383 L484.211577,73.1037924 C484.211577,71.3323353 484.99002,70.5538922 486.761477,70.5538922 L497.030938,70.5538922 C498.797405,70.5538922 499.580838,71.3323353 499.580838,73.1037924 L499.580838,95.4141717 C499.580838,97.1856287 498.797405,97.9640719 497.030938,97.9640719 L460.983034,97.9840319 Z" id="路径" fill="#000000"></path>
            <polygon id="路径" fill="#000000" points="4.14670659 71.9860279 11.9860279 67.7644711 4.89520958 62.3802395 13.2934132 59.4361277 7.14071856 53.003992 15.8982036 51.4171657 10.8283433 44.1017964 19.7305389 43.9121756 15.8732535 35.8882236 24.6956088 37.0908184 22.1357285 28.5628743 30.6586826 31.1277445 29.4560878 22.3053892 37.4800399 26.1626747 37.6696607 17.2654691 44.9850299 22.3303393 46.5718563 13.5728543 53.003992 19.7305389 55.9481038 11.3273453 61.3323353 18.4181637 65.5538922 10.5788423 69.7704591 18.4181637 75.1546906 11.3273453 78.1037924 19.7305389 84.5309381 13.5728543 86.1177645 22.3303393 93.4381238 17.2654691 93.6277445 26.1676647 101.651697 22.3053892 100.444112 31.1277445 108.972056 28.5678643 106.412176 37.0908184 115.234531 35.8882236 111.372255 43.9121756 120.274451 44.1017964 115.204591 51.4221557 123.967066 53.003992 117.809381 59.4361277 126.207585 62.3802395 119.116766 67.7644711 126.956088 71.9860279 119.116766 76.2075848 126.207585 81.5868263 117.809381 84.5359281 123.967066 90.9680639 115.204591 92.5499002 120.274451 99.8702595 111.372255 100.05988 115.229541 108.083832 106.412176 106.881238 108.972056 115.404192 100.444112 112.844311 101.646707 121.666667 93.6277445 117.804391 93.4381238 126.706587 86.1177645 121.636727 84.5309381 130.399202 78.1037924 124.241517 75.1546906 132.644711 69.7704591 125.553892 65.5538922 133.388224 61.3323353 125.553892 55.9481038 132.644711 53.003992 124.241517 46.5718563 130.399202 44.9850299 121.636727 37.6646707 126.706587 37.4750499 117.804391 29.4560878 121.661677 30.6586826 112.844311 22.1307385 115.404192 24.6906188 106.876248 15.8732535 108.083832 19.7305389 100.05988 10.8283433 99.8702595 15.8982036 92.5499002 7.13572854 90.9630739 13.2934132 84.5359281 4.89520958 81.5868263 11.9860279 76.2075848"></polygon>
            <path d="M65.5538922,137.44012 L61.0628743,129.086826 L55.3243513,136.646707 L52.1806387,127.689621 L45.3243513,134.256487 L43.6327345,124.91018 L35.8283433,130.314371 L35.6287425,120.833333 L27.0758483,124.94511 L28.3582834,115.543912 L19.2664671,118.263473 L21.996008,109.176647 L12.5948104,110.459082 L16.7115768,101.911178 L7.23053892,101.706587 L12.6247505,93.9071856 L3.28343313,92.2155689 L9.8502994,85.3592814 L0.893213573,82.2205589 L8.44810379,76.4820359 L0.0998003992,71.991018 L8.44810379,67.5 L0.893213573,61.761477 L9.8502994,58.6177645 L3.28343313,51.751497 L12.6247505,50.0598802 L7.22055888,42.255489 L16.7015968,42.0558882 L12.5998004,33.502994 L21.996008,34.7854291 L19.2714571,25.6986028 L28.3532934,28.4431138 L27.0708583,19.0469062 L35.6237525,23.1586826 L35.8233533,13.6776447 L43.6277445,19.0818363 L45.3193613,9.74051896 L52.1756487,16.3073852 L55.3193613,7.3253493 L61.0578842,14.8852295 L65.5489022,6.53193613 L70.0399202,14.8852295 L75.7734531,7.3253493 L78.9171657,16.3073852 L85.7734531,9.74051896 L87.4650699,19.0818363 L95.2694611,13.6776447 L95.4740519,23.1586826 L104.021956,19.0469062 L102.749501,28.4431138 L111.836327,25.7135729 L109.106786,34.8003992 L118.507984,33.5179641 L114.396208,42.0658683 L123.877246,42.2704591 L118.473054,50.0748503 L127.819361,51.761477 L121.257485,58.6127745 L130.239521,61.751497 L122.679641,67.49002 L131.027944,71.9810379 L122.679641,76.4720559 L130.239521,82.2205589 L121.257485,85.3592814 L127.824351,92.2155689 L118.483034,93.9071856 L123.887226,101.716567 L114.406188,101.916168 L118.517964,110.469062 L109.116766,109.186627 L111.846307,118.268463 L102.759481,115.538922 L104.041916,124.94012 L95.489022,120.828343 L95.2894212,130.309381 L87.4750499,124.91517 L85.7834331,134.256487 L78.9271457,127.689621 L75.7834331,136.646707 L70.0499002,129.086826 L65.5538922,137.44012 Z M61.6067864,122.015968 L65.5538922,129.341317 L69.496008,122.015968 L74.5259481,128.637725 L77.2754491,120.793413 L83.2634731,126.541916 L84.760479,118.363273 L91.5918164,123.098802 L91.7714571,114.785429 L99.256487,118.388224 L98.1287425,110.149701 L106.112774,112.53992 L103.717565,104.555888 L111.961078,105.678643 L108.358283,98.1936128 L116.666667,98.0189621 L111.936128,91.1826347 L120.11477,89.6856287 L114.366267,83.6976048 L122.210579,80.9431138 L115.588822,75.9181637 L122.914172,71.9710579 L115.588822,68.0239521 L122.210579,62.994012 L114.366267,60.244511 L120.11477,54.256487 L111.936128,52.759481 L116.671657,45.9231537 L108.358283,45.748503 L111.961078,38.2634731 L103.712575,39.4211577 L106.107784,31.4371257 L98.1237525,33.8273453 L99.246507,25.5888224 L91.761477,29.1916168 L91.5868263,20.8782435 L84.750499,25.6137725 L83.253493,17.4301397 L77.2654691,23.1786427 L74.510978,15.3343313 L69.496008,21.9560878 L65.5538922,14.6307385 L61.6067864,21.9560878 L56.5768463,15.3293413 L53.8273453,23.1736527 L47.8393214,17.4251497 L46.3423154,25.6037924 L39.510978,20.8732535 L39.3363273,29.1866267 L31.8512974,25.5788423 L32.9740519,33.8223553 L24.99002,31.4271457 L27.3852295,39.4111776 L19.1417166,38.2884232 L22.749501,45.7734531 L14.4361277,45.9481038 L19.1666667,52.7794411 L10.988024,54.2764471 L16.7365269,60.2644711 L8.89221557,63.0139721 L15.5189621,68.0439122 L8.18862275,71.991018 L15.5189621,75.9381238 L8.89720559,80.9580838 L16.741517,83.7125749 L10.9780439,89.7105788 L19.1566866,91.2075848 L14.4261477,98.0439122 L22.739521,98.2185629 L19.1317365,105.703593 L27.3752495,104.580838 L24.9800399,112.56487 L32.9640719,110.174651 L31.8363273,118.413174 L39.3213573,114.810379 L39.500998,123.123752 L46.3323353,118.388224 L47.8293413,126.566866 L53.8173653,120.818363 L56.5668663,128.662675 L61.6067864,122.015968 Z" id="形状" fill="#000000"></path>
            <circle id="椭圆形" fill="#E81858" cx="65.5538922" cy="71.9860279" r="55.00998"></circle>
            <path d="M65.3692615,114.201597 C76.242515,114.201597 85.8283433,111.002994 94.8103792,104.605788 C107.61477,95.4640719 106.322355,81.5818363 94.8103792,86.6966068 C90.8882236,88.4381238 82.3353293,96.2924152 65.3692615,96.2924152 L65.5389222,96.2924152 C48.5728543,96.2924152 40.0349301,88.4381238 36.0978044,86.6966068 C24.5858283,81.5818363 23.2984032,95.4640719 36.0978044,104.605788 C45.0548902,111.002994 54.6506986,114.201597 65.5389222,114.201597" id="路径" fill="#AA174C"></path>
            <path d="M65.5538922,115.479042 L65.3692615,115.479042 C54.3912176,115.449102 44.5858283,112.230539 35.3692615,105.648703 C28.737525,100.908184 23.488024,92.4600798 26.5718563,87.0658683 C28.2834331,84.0718563 32.0608782,83.488024 36.6317365,85.5289421 C37.7032323,86.0497602 38.7414767,86.6363766 39.740519,87.2854291 C44.4510978,90.1696607 52.3253493,94.99002 65.4540918,95.00998 C78.5828343,95.0299401 86.4520958,90.1696607 91.1626747,87.2854291 C92.1746373,86.6349299 93.2262533,86.0482915 94.3113772,85.5289421 C98.8972056,83.488024 102.659681,84.0618762 104.371257,87.0658683 C107.45509,92.4600798 102.205589,100.908184 95.5738523,105.648703 C86.3572854,112.230539 76.5419162,115.449102 65.5788423,115.479042 L65.5538922,115.479042 Z M31.6966068,86.8712575 C30.3592814,86.8712575 29.3612774,87.3702595 28.8073852,88.3333333 C27.1956088,91.1526946 29.1017964,98.0139721 36.8712575,103.567864 C45.6636727,109.845309 55.0149701,112.904192 65.4690619,112.924248 C75.9231537,112.944112 85.2694611,109.845309 94.0618762,103.567864 C101.831337,98.0139721 103.737525,91.1526946 102.125749,88.3333333 C101.127745,86.5668663 98.6327345,86.3972056 95.3243513,87.8642715 C94.3594864,88.346769 93.4216352,88.8814941 92.5149701,89.4660679 C87.5848303,92.4850299 79.3512974,97.5299401 65.5688623,97.5698603 L65.3692615,97.5698603 C51.5668663,97.5299401 43.3333333,92.4850299 38.4231537,89.4660679 C37.5171335,88.880432 36.5792228,88.345673 35.6137725,87.8642715 C34.3897688,87.2686774 33.0565274,86.9306965 31.6966068,86.8712575 Z" id="形状" fill="#000000"></path>
            <path d="M65.5538922,128.912176 C34.114449,128.912176 8.62774451,103.425471 8.62774451,71.9860279 C8.62774451,40.5465847 34.114449,15.0598802 65.5538922,15.0598802 C96.9933355,15.0598802 122.48004,40.5465847 122.48004,71.9860279 C122.441548,103.409513 96.9773776,128.873683 65.5538922,128.912176 Z M65.5538922,18.8972056 C36.2337452,18.8972056 12.4650699,42.665881 12.4650699,71.9860279 C12.4650699,101.306175 36.2337452,125.07485 65.5538922,125.07485 C94.8740392,125.07485 118.642715,101.306175 118.642715,71.9860279 C118.609715,42.6795608 94.8603594,18.9302053 65.5538922,18.8972056 Z" id="形状" fill="#000000"></path>
            <circle id="椭圆形" fill="#FFFFFF" cx="44.1017964" cy="62.6946108" r="15.0499002"></circle>
            <path d="M44.1017964,79.0219561 C37.4955294,79.0219561 31.5398518,75.0421699 29.0122093,68.9385818 C26.4845667,62.8349937 27.8828069,55.8097738 32.5548567,51.1391513 C37.2269066,46.4685289 44.2525535,45.0724356 50.355369,47.6019431 C56.4581844,50.1314506 60.4361501,56.088344 60.4341325,62.6946108 C60.4231285,71.7093409 53.1165295,79.0137075 44.1017964,79.0219561 L44.1017964,79.0219561 Z M44.1017964,48.9221557 C36.4954795,48.9221557 30.3293413,55.0882939 30.3293413,62.6946108 C30.3293413,70.3009277 36.4954795,76.4670659 44.1017964,76.4670659 C51.7081133,76.4670659 57.8742524,70.3009277 57.8742524,62.6946108 C57.8770105,55.0839203 51.7124829,48.9104586 44.1017964,48.9021956 L44.1017964,48.9221557 Z" id="形状" fill="#000000"></path>
            <circle id="椭圆形" fill="#FFFFFF" cx="86.3622754" cy="62.6946108" r="15.0499002"></circle>
            <path d="M86.3622754,79.0219561 C79.7560084,79.0219561 73.8003308,75.0421699 71.2726883,68.9385818 C68.7450458,62.8349937 70.1432859,55.8097738 74.8153358,51.1391513 C79.4873857,46.4685289 86.5130326,45.0724356 92.615848,47.6019431 C98.7186634,50.1314506 102.696629,56.088344 102.694612,62.6946108 C102.683608,71.7093409 95.3770085,79.0137075 86.3622754,79.0219561 Z M86.3622754,48.9221557 C78.7559585,48.9221557 72.5898204,55.0882939 72.5898204,62.6946108 C72.5898204,70.3009277 78.7559585,76.4670659 86.3622754,76.4670659 C93.9685924,76.4670659 100.134731,70.3009277 100.134731,62.6946108 C100.13749,55.0839203 93.972962,48.9104586 86.3622754,48.9021956 L86.3622754,48.9221557 Z" id="形状" fill="#000000"></path>
            <circle id="椭圆形" fill="#000000" cx="44.1017964" cy="64.99002" r="8.95708583"></circle>
            <circle id="椭圆形" fill="#000000" cx="86.3622754" cy="64.99002" r="8.95708583"></circle>
            <path d="M65.5538922,96.3073852 L61.0628743,106.242515 L57.8143713,96.9461078 L52.1956088,104.620758 L49.4011976,94.3712575 L36.751497,112.924152 L39.2764471,88.4730539 C39.2764471,88.4730539 51.1526946,96.3073852 65.5538922,96.3073852 Z" id="路径" fill="#FFFFFF"></path>
            <path d="M36.3123752,113.577844 L38.2185629,86.2674651 L39.9800399,87.4251497 C42.9781864,89.257797 46.1548608,90.7809288 49.4610778,91.9710579 L50.1097804,92.2055888 C52.7095941,93.1302941 55.3795376,93.844504 58.0938124,94.3413174 L58.1836327,94.2115768 L58.238523,94.3662675 C60.617445,94.7873538 63.0282204,95.0027209 65.4441118,95.00998 L67.49002,95.00998 L60.8782435,109.675649 L57.3852295,99.6506986 L51.6367265,107.5 L48.9021956,97.3802395 L36.3123752,113.577844 Z M40.3443114,90.6237525 L39.0718563,106.896208 L47.9840319,94.1716567 C45.3535406,93.1788235 42.8000138,91.9929596 40.3443114,90.6237525 L40.3443114,90.6237525 Z M59.246507,97.1107784 L61.242515,102.769461 L63.6077844,97.5199601 C62.1057884,97.4600798 60.6536926,97.3053892 59.246507,97.1207585 L59.246507,97.1107784 Z M50.9530938,95.1946108 L52.739521,101.706587 L56.4570858,96.6267465 C54.5981058,96.2523499 52.7607541,95.7776035 50.9530938,95.2045908 L50.9530938,95.1946108 Z" id="形状" fill="#000000"></path>
            <path d="M65.5538922,114.201597 L61.0628743,106.217565 L56.3023952,113.552894 L52.0359281,104.595808 L46.7864271,110.503992 C46.7864271,110.503992 53.008982,114.201597 65.5538922,114.201597 Z" id="路径" fill="#FFFFFF"></path>
            <path d="M55.3892216,114.605788 C49.4011976,113.493014 46.3273453,111.721557 46.1427146,111.611776 L44.8103792,110.818363 L52.3952096,102.295409 L56.511976,110.928144 L61.1776447,103.737525 L67.7644711,115.459082 L65.5788423,115.459082 C62.711768,115.468148 59.8479659,115.264663 57.010978,114.850299 L55.3892216,114.605788 Z M58.5329341,112.49501 C59.99002,112.679641 61.5968064,112.819361 63.3433134,112.884232 L60.993014,108.697605 L58.5329341,112.49501 Z M48.9021956,110.08982 C50.5615011,110.764551 52.2739723,111.300325 54.0219561,111.691617 L51.7365269,106.896208 L48.9021956,110.08982 Z" id="形状" fill="#000000"></path>
            <path d="M65.2245509,96.3073852 L69.7155689,106.242515 L72.9640719,96.9461078 L78.5828343,104.620758 L81.3972056,94.3862275 L94.0369261,112.939122 L91.511976,88.488024 C91.511976,88.488024 79.6257485,96.3073852 65.2245509,96.3073852 Z" id="路径" fill="#FFFFFF"></path>
            <path d="M94.0219561,113.577844 L81.8812375,97.3802395 L79.1017964,107.5 L73.3532934,99.6506986 L69.8602794,109.675649 L63.243513,95.00998 L65.239521,95.00998 C67.6749401,94.99589 70.1050308,94.7805866 72.50499,94.3662675 L72.6546906,94.3413174 C75.3774108,93.8458073 78.0557485,93.1315839 80.6636727,92.2055888 L81.3073852,91.9710579 C84.6141639,90.7822714 87.7909718,89.2590755 90.7884232,87.4251497 L92.5499002,86.2674651 L94.0219561,113.577844 Z M82.7944112,94.1716567 L91.8163673,106.896208 L90.4491018,90.6237525 C87.9875607,91.9916474 85.429156,93.177453 82.7944112,94.1716567 L82.7944112,94.1716567 Z M67.1856287,97.5299401 L69.5508982,102.794411 L71.5469062,97.1357285 C70.1197605,97.3053892 68.6676647,97.4600798 67.1856287,97.5299401 L67.1856287,97.5299401 Z M74.3213573,96.6367265 L78.0389222,101.716567 L79.8403194,95.2045908 C78.0277516,95.7808474 76.1854216,96.2589204 74.3213573,96.6367265 L74.3213573,96.6367265 Z" id="形状" fill="#000000"></path>
            <path d="M65.2245509,114.201597 L69.7155689,106.217565 L74.4810379,113.552894 L78.742515,104.595808 L83.992016,110.503992 C83.992016,110.503992 77.7644711,114.201597 65.2245509,114.201597 Z" id="路径" fill="#FFFFFF"></path>
            <path d="M73.7874251,114.870259 C70.9521147,115.28465 68.0899693,115.488136 65.2245509,115.479042 L63.0389222,115.479042 L69.6207585,103.757485 L74.2914172,110.948104 L78.4031936,102.315369 L85.9630739,110.798403 L84.6307385,111.591816 C84.4510978,111.701597 81.3922156,113.473054 75.3842315,114.585828 L73.7874251,114.870259 Z M69.7954092,108.697605 L67.4451098,112.884232 C69.1966068,112.819361 70.7984032,112.679641 72.260479,112.49501 L69.7954092,108.697605 Z M79.0668663,106.896208 L76.7864271,111.691617 C78.5339984,111.298786 80.2463442,110.763052 81.9061876,110.08982 L79.0668663,106.896208 Z" id="形状" fill="#000000"></path>
            <path d="M54.6806387,84.1367265 C56.7255718,84.9155358 58.8857645,85.3489234 61.0728543,85.4191617" id="路径" fill="#000000"></path>
            <path d="M61.0728543,87.3253493 C58.6413944,87.2561178 56.239058,86.7770001 53.9670659,85.9081836 C52.9804494,85.5154662 52.4989991,84.3972951 52.8917166,83.4106786 C53.284434,82.4240622 54.4026051,81.9426119 55.3892216,82.3353293 C57.2094023,83.021442 59.1289371,83.4073713 61.0728543,83.4780439 C61.7816726,83.441884 62.4526842,83.7994649 62.8179455,84.4080001 C63.1832068,85.0165354 63.1832068,85.7768778 62.8179455,86.385413 C62.4526842,86.9939483 61.7816726,87.3515292 61.0728543,87.3153693 L61.0728543,87.3253493 Z" id="路径" fill="#000000"></path>
            <path d="M75.1447106,84.1367265 C73.0995718,84.9148229 70.9394996,85.3481863 68.752495,85.4191617" id="路径" fill="#000000"></path>
            <path d="M68.752495,87.3253493 C68.0436767,87.3615093 67.3726651,87.0039283 67.0074038,86.3953931 C66.6421425,85.7868579 66.6421425,85.0265154 67.0074038,84.4179802 C67.3726651,83.809445 68.0436767,83.451864 68.752495,83.488024 C70.6967765,83.4125775 72.6160771,83.0233251 74.4361277,82.3353293 C75.4199883,81.9426119 76.5359252,82.4218281 76.9286427,83.4056886 C77.3213601,84.3895492 76.842144,85.5054861 75.8582834,85.8982036 C73.5866975,86.7697875 71.184453,87.2522608 68.752495,87.3253493 L68.752495,87.3253493 Z" id="路径" fill="#000000"></path>
            <path d="M20.7784431,79.3413193 C20.4835161,79.3418336 20.1976413,79.2394833 19.9700599,79.0518962 C19.4226734,78.6048778 19.3401035,77.7992635 19.7854291,77.250499 C24.8453094,71.0678643 33.4580838,72.9241517 37.3053892,74.755489 C37.9420048,75.0600173 38.2112148,75.8229652 37.9066865,76.4595808 C37.6021583,77.0961964 36.8392105,77.3654065 36.2025948,77.0608782 C34.4578632,76.2983049 32.6068081,75.8069339 30.7135729,75.6037924 C26.8612774,75.2145709 23.8423154,76.3073852 21.756487,78.8572854 C21.520176,79.1579007 21.1607801,79.3357649 20.7784431,79.3413193 L20.7784431,79.3413193 Z" id="路径" fill="#000000"></path>
            <path d="M110,79.0219561 C109.61366,79.0239127 109.247027,78.8515948 109.001996,78.5528942 C103.942116,72.3702595 94.6656687,76.7165669 94.5708583,76.761477 C94.153833,76.9928148 93.6428815,76.9736424 93.2443654,76.7117033 C92.8458492,76.4497642 92.625594,75.9883244 92.6725556,75.513749 C92.7195173,75.0391736 93.025939,74.6298512 93.4680639,74.4510978 C97.3103792,72.6047904 105.943114,70.753493 110.983034,76.9461078 C111.29951,77.3293229 111.364995,77.8613062 111.150901,78.3098318 C110.936808,78.7583573 110.482006,79.041994 109.98503,79.0369261 L110,79.0219561 Z" id="路径" fill="#000000"></path>
            <path d="M75.0299401,26.3822355 C74.6033817,24.4370251 75.1152301,22.4044143 76.4121756,20.8932136 L92.3802395,2.28043912 C93.0122775,1.58636472 94.028751,1.39722332 94.868143,1.81749981 C95.707535,2.2377763 96.1650806,3.16494664 95.988024,4.08682635 L96.3073852,29.1467066 C96.3477776,32.1992026 94.0707834,34.7866959 91.0379242,35.1347305 C84.4361277,35.8882236 76.746507,34.2215569 75.0299401,26.3822355 Z" id="路径" fill="#E81858"></path>
            <path d="M88.1237525,36.5918987 C80.4391218,36.5918987 75.1497006,33.003992 73.7774451,26.6566866 L73.7774451,26.6566866 C73.2721994,24.3165751 73.8886509,21.8747629 75.4441118,20.0548902 L91.4121756,1.44211577 C92.4035695,0.3257611 94.0108828,-0.00608228439 95.3633319,0.626366218 C96.7157809,1.25881472 97.491592,2.70508337 97.2704591,4.18163673 L97.5998004,29.1317365 C97.6716727,32.8525994 94.8962912,36.0151931 91.1976048,36.4271457 C90.176863,36.5393528 89.15064,36.594329 88.1237525,36.5918987 L88.1237525,36.5918987 Z M93.9171657,2.85928144 C93.6915639,2.86001184 93.477836,2.96048221 93.3333333,3.13373253 L77.3652695,21.7215569 C76.3308298,22.930168 75.9209856,24.5529293 76.257485,26.1077844 L76.257485,26.1077844 C76.8612774,28.8722555 79.505988,35.1546906 90.8882236,33.8672655 C93.2733928,33.6023883 95.0653618,31.5661582 95.0249501,29.1666667 L94.7155689,3.99201597 L94.740519,3.86227545 C94.8238799,3.50213007 94.6424562,3.13302682 94.3063872,2.97904192 C94.1874553,2.91001237 94.0543314,2.86905116 93.9171657,2.85928144 L93.9171657,2.85928144 Z" id="形状" fill="#000000"></path>
            <path d="M55.8083832,26.3822355 C56.2303909,24.4362913 55.717029,22.4050029 54.4211577,20.8932136 L38.4530938,2.28043912 C37.8210559,1.58636472 36.8045824,1.39722332 35.9651904,1.81749981 C35.1257984,2.2377763 34.6682527,3.16494664 34.8453094,4.08682635 L34.5159681,29.1516966 C34.4755757,32.2041926 36.7525699,34.7916859 39.7854291,35.1397206 C46.4071856,35.8882236 54.0868263,34.2215569 55.8083832,26.3822355 Z" id="路径" fill="#E81858"></path>
            <path d="M42.7145709,36.5918164 C41.6857399,36.5895031 40.6578473,36.5295288 39.6357285,36.4121756 C35.9428553,36.0007279 33.1694826,32.8469081 33.2335329,29.1317365 L33.5578842,4.18163673 C33.3187327,2.69779903 34.0901316,1.23473995 35.4495893,0.593770078 C36.8090471,-0.0471997906 38.4285719,0.288564193 39.4211577,1.41716567 L55.3892216,20.0548902 C56.9446824,21.8747629 57.5611339,24.3165751 57.0558882,26.6566866 L57.0558882,26.6566866 C55.6636727,33.003992 50.3992016,36.5918164 42.7145709,36.5918164 Z M36.9261477,2.85428663 C36.7869566,2.8546959 36.6499522,2.888947 36.5269461,2.95409182 C36.1874783,3.10486635 36.003126,3.47566597 36.0878244,3.83732535 L36.0878244,3.96706587 L35.758483,29.1666667 C35.7193241,31.574751 37.5250747,33.6143398 39.9201597,33.8672655 C51.3123752,35.1546906 53.9471058,28.8772455 54.5508982,26.1077844 L54.5508982,26.1077844 C54.8873976,24.5529293 54.4775535,22.930168 53.4431138,21.7215569 L37.4750499,3.10878244 C37.3388804,2.94674378 37.1378032,2.85351706 36.9261477,2.85428663 Z" id="形状" fill="#000000"></path>
        </g>
    </g>
</svg>